<svg width="12" height="8" viewBox="0 0 12 8" fill="none" xmlns="http://www.w3.org/2000/svg">
<path d="M11.7002 1.59082C11.7002 1.37943 11.6183 1.17482 11.4717 1.02344C11.3249 0.872067 11.1244 0.786133 10.9141 0.786133C10.7037 0.786229 10.5032 0.871934 10.3564 1.02344L6.24902 5.27246L2.1416 1.02441C2.06918 0.949009 1.9825 0.888914 1.88672 0.847656C1.79081 0.806389 1.68732 0.78418 1.58301 0.78418C1.47884 0.784207 1.37607 0.806469 1.28027 0.847656C1.18438 0.888916 1.09691 0.94893 1.02441 1.02441C0.952296 1.09959 0.895839 1.189 0.857422 1.28613C0.819265 1.38275 0.800415 1.48585 0.800781 1.58984L0.799805 1.5918L0.800781 1.5918C0.800512 1.69567 0.81926 1.79901 0.857422 1.89551C0.895818 1.99248 0.952418 2.08117 1.02441 2.15625L1.02539 2.15723L5.69141 6.97559L5.69238 6.97559C5.76462 7.05048 5.84996 7.11131 5.94531 7.15234C6.04122 7.19361 6.14471 7.21484 6.24902 7.21484C6.3531 7.21481 6.45604 7.19346 6.55176 7.15234C6.64765 7.11108 6.73512 7.05009 6.80762 6.97461L11.4717 2.15723C11.6182 2.00594 11.7001 1.80208 11.7002 1.59082Z" fill="#959595" stroke="white" stroke-width="0.4"/>
</svg>
